# xmcd CD database file
#
# Track frame offsets:
#	150
#	21862
#	40537
#
# Disc length: 825 seconds
#
# Revision: 0
# Processed by: cddbd v1.5PL3 Copyright (c) Steve Scherf et al.
# Submitted via: CDex 1.51
#
DISCID=17033703
DTITLE=Laputa - Feelin' the sky
DYEAR=1998
DGENRE=Rock
TTITLE0=Feelin' the sky
TTITLE1=Squall
TTITLE2=Feelin' the sky  instrumental
EXTD=YEAR: 1998
EXTT0=
EXTT1=
EXTT2=
PLAYORDER=
